<svg xmlns="http://www.w3.org/2000/svg" width="1200" height="760" viewBox="0 0 1200 760">
  <rect width="1200" height="760" fill="#0b0a10"/>
  <rect x="120" y="70" width="960" height="620" rx="34" fill="#15131c" stroke="#ff8fb3" stroke-opacity=".35"/>
  <path d="M120 104a34 34 0 0 1 34-34h426v620H154a34 34 0 0 1-34-34z" fill="#351522"/>
  <path d="M120 174h460M120 278h460M120 382h460" stroke="#fff" stroke-opacity=".05"/>
  <circle cx="350" cy="292" r="142" fill="none" stroke="#ff8fb3" stroke-opacity=".2"/>
  <rect x="274" y="142" width="152" height="34" rx="17" fill="#171019" stroke="#ff8fb3" stroke-opacity=".35"/>
  <circle cx="296" cy="159" r="5" fill="#ff8fb3"/>
  <text x="310" y="165" fill="#ffe2eb" font-family="Arial" font-size="12" font-weight="700">CLAVE PROTEGIDA</text>
  <g stroke="#21131b" stroke-width="5">
    <ellipse cx="314" cy="505" rx="42" ry="9" fill="#160c12" stroke="none" opacity=".5"/>
    <rect x="287" y="370" width="58" height="72" rx="17" fill="#ff8fb3"/>
    <circle cx="316" cy="349" r="25" fill="#ffd4bb"/>
    <path d="M291 344q5-31 49-17l1 21" fill="#24141d"/>
    <path d="M292 386l-13 48M340 386l13 48M300 441l-4 58M332 441l4 58" stroke="#ffd4bb" stroke-linecap="round"/>
    <rect x="327" y="403" width="45" height="32" rx="6" fill="#c9ff72"/>
  </g>
  <g stroke="#21131b" stroke-width="5">
    <ellipse cx="431" cy="505" rx="42" ry="9" fill="#160c12" stroke="none" opacity=".5"/>
    <rect x="402" y="370" width="58" height="72" rx="17" fill="#a98cff"/>
    <circle cx="431" cy="349" r="25" fill="#ffd4bb"/>
    <path d="M406 344q5-31 49-17l1 21" fill="#24141d"/>
    <path d="M407 391l18-32M455 391l-18-32" stroke="#ffd4bb" stroke-linecap="round"/>
    <path d="M415 441l-4 58M447 441l4 58" stroke="#30202d" stroke-linecap="round"/>
  </g>
  <path d="M452 291h48m-48 0a18 18 0 1 1-18-18 18 18 0 0 1 18 18zm27 0v17m13-17v12" fill="none" stroke="#c9ff72" stroke-width="10"/>
  <text x="175" y="585" fill="#ffd0df" font-family="Arial" font-size="15" font-weight="700">TINY AUTH CREW</text>
  <text x="175" y="626" fill="#fff9fc" font-family="Arial" font-size="34" font-weight="800">Nadie está mirando.</text>
  <rect x="635" y="115" width="390" height="52" rx="14" fill="#0d0c13" stroke="#ff8fb3" stroke-opacity=".3"/>
  <rect x="641" y="121" width="189" height="40" rx="10" fill="#ff8fb3"/>
  <text x="710" y="147" fill="#240d16" font-family="Arial" font-size="15" font-weight="700">Acceso</text>
  <text x="902" y="147" fill="#aaa5b8" font-family="Arial" font-size="15" font-weight="700">Registro</text>
  <text x="635" y="221" fill="#ff8fb3" font-family="Arial" font-size="14" font-weight="700">ACTIVA LA ESCENA</text>
  <text x="635" y="260" fill="#fff9fc" font-family="Arial" font-size="30" font-weight="800">La cuadrilla te acompaña</text>
  <text x="635" y="307" fill="#d7d0df" font-family="Arial" font-size="14">Correo de ejemplo</text>
  <rect x="635" y="322" width="390" height="56" rx="12" fill="#0d0c13" stroke="#3b3442"/>
  <text x="655" y="357" fill="#fff9fc" font-family="Arial" font-size="16">hola@ejemplo.com</text>
  <text x="635" y="415" fill="#d7d0df" font-family="Arial" font-size="14">Clave de ejemplo</text>
  <rect x="635" y="430" width="390" height="56" rx="12" fill="#0d0c13" stroke="#3b3442"/>
  <text x="655" y="465" fill="#fff9fc" font-family="Arial" font-size="21">••••••••</text>
  <rect x="635" y="530" width="390" height="58" rx="13" fill="#ff8fb3"/>
  <text x="668" y="566" fill="#260d17" font-family="Arial" font-size="17" font-weight="800">Completar la escena</text>
</svg>
