<svg xmlns="http://www.w3.org/2000/svg" width="1200" height="760" viewBox="0 0 1200 760">
  <defs>
    <linearGradient id="night" x2="1" y2="1"><stop stop-color="#07151c"/><stop offset="1" stop-color="#1b0b25"/></linearGradient>
    <radialGradient id="orb" cx="32%" cy="25%"><stop stop-color="#efffff"/><stop offset=".18" stop-color="#72f4ff"/><stop offset=".52" stop-color="#6670ff"/><stop offset=".82" stop-color="#bb2f9f"/><stop offset="1" stop-color="#1b0a31"/></radialGradient>
    <linearGradient id="accent"><stop stop-color="#72f4ff"/><stop offset=".5" stop-color="#b8ff66"/><stop offset="1" stop-color="#ff6dac"/></linearGradient>
    <pattern id="grid" width="54" height="54" patternUnits="userSpaceOnUse"><path d="M54 0H0v54" fill="none" stroke="#72f4ff" stroke-opacity=".09"/></pattern>
  </defs>
  <rect width="1200" height="760" fill="#070a0f"/>
  <rect x="90" y="70" width="1020" height="620" rx="34" fill="#111722" stroke="#72f4ff" stroke-opacity=".4"/>
  <path d="M124 70h514v620H124a34 34 0 0 1-34-34V104a34 34 0 0 1 34-34z" fill="url(#night)"/>
  <path d="M90 70h548v620H90z" fill="url(#grid)"/>
  <text x="136" y="170" fill="#b8ff66" font-family="Arial" font-size="17" font-weight="700" letter-spacing="3">DESPUÉS / EXPERIENCIA DIGITAL</text>
  <text x="136" y="246" fill="#fff" font-family="Arial" font-size="48" font-weight="800">Diseño que se</text>
  <text x="136" y="299" fill="url(#accent)" font-family="Arial" font-size="48" font-weight="800">siente vivo.</text>
  <rect x="136" y="354" width="170" height="48" rx="24" fill="#b8ff66"/>
  <text x="174" y="384" fill="#0b160d" font-family="Arial" font-size="13" font-weight="800">EXPLORAR</text>
  <circle cx="492" cy="464" r="107" fill="url(#orb)"/>
  <ellipse cx="492" cy="464" rx="158" ry="65" fill="none" stroke="#72f4ff" stroke-width="3" stroke-dasharray="12 9" transform="rotate(24 492 464)"/>
  <ellipse cx="492" cy="464" rx="145" ry="54" fill="none" stroke="#ff6dac" stroke-width="3" stroke-dasharray="18 11" transform="rotate(-38 492 464)"/>
  <circle cx="355" cy="392" r="8" fill="#b8ff66"/>
  <rect x="142" y="530" width="220" height="86" rx="18" fill="#fff" fill-opacity=".08" stroke="#fff" stroke-opacity=".18"/>
  <text x="165" y="565" fill="#72f4ff" font-family="Arial" font-size="12" font-weight="700">MOTION · 3D</text>
  <path d="M165 590h145" stroke="#fff" stroke-opacity=".28" stroke-width="7"/>
  <path d="M165 590h92" stroke="#b8ff66" stroke-width="7"/>
  <path d="M638 70h438a34 34 0 0 1 34 34v552a34 34 0 0 1-34 34H638z" fill="#e1ded8"/>
  <rect x="638" y="70" width="472" height="70" fill="#c8c5bf"/>
  <circle cx="674" cy="105" r="7" fill="#96938d"/><circle cx="698" cy="105" r="7" fill="#96938d"/><circle cx="722" cy="105" r="7" fill="#96938d"/>
  <rect x="688" y="183" width="250" height="26" fill="#8d8a85"/>
  <rect x="688" y="228" width="318" height="14" fill="#b5b2ac"/>
  <rect x="688" y="258" width="244" height="14" fill="#b5b2ac"/>
  <rect x="688" y="320" width="332" height="250" fill="#cfccc6" stroke="#a19e98" stroke-width="3"/>
  <circle cx="854" cy="422" r="72" fill="#b5b2ac"/>
  <path d="M798 415h112M815 447h78" stroke="#85827d" stroke-width="11"/>
  <g transform="rotate(-7 1000 225)"><rect x="938" y="165" width="136" height="108" fill="#ffd86b"/><text x="956" y="205" fill="#6b561a" font-family="Arial" font-size="14" font-weight="700">TODO:</text><text x="956" y="232" fill="#6b561a" font-family="Arial" font-size="13">dar jerarquía</text></g>
  <path d="M638 70v620" stroke="url(#accent)" stroke-width="5"/>
  <circle cx="638" cy="380" r="42" fill="#10141d" stroke="#fff" stroke-width="3"/>
  <text x="638" y="389" text-anchor="middle" fill="#fff" font-family="Arial" font-size="25">↔</text>
  <rect x="112" y="93" width="92" height="32" rx="16" fill="#0b1018"/><text x="158" y="114" text-anchor="middle" fill="#b8ff66" font-family="Arial" font-size="12" font-weight="800">DESPUÉS</text>
  <rect x="986" y="93" width="88" height="32" rx="16" fill="#292a2c"/><text x="1030" y="114" text-anchor="middle" fill="#eeeae3" font-family="Arial" font-size="12" font-weight="800">ANTES</text>
</svg>
