<svg xmlns="http://www.w3.org/2000/svg" width="1200" height="760" viewBox="0 0 1200 760"><defs><radialGradient id="g"><stop stop-color="#183a2b"/><stop offset="1" stop-color="#06090d"/></radialGradient></defs><rect width="1200" height="760" fill="url(#g)"/><g opacity=".16" stroke="#71f5af"><path d="M0 80h1200M0 160h1200M0 240h1200M0 320h1200M0 400h1200M0 480h1200M0 560h1200M0 640h1200M100 0v760M200 0v760M300 0v760M400 0v760M500 0v760M600 0v760M700 0v760M800 0v760M900 0v760M1000 0v760M1100 0v760"/></g><rect x="178" y="108" width="844" height="544" rx="28" fill="#0d151a" stroke="#71f5af" stroke-opacity=".3"/><circle cx="218" cy="145" r="7" fill="#ff7b86"/><circle cx="243" cy="145" r="7" fill="#e9c768"/><circle cx="268" cy="145" r="7" fill="#71f5af"/><text x="600" y="274" text-anchor="middle" fill="#71f5af" font-family="monospace" font-size="18" letter-spacing="5">MENSAJE DECODIFICADO</text><text x="600" y="387" text-anchor="middle" fill="#f1fff8" font-family="monospace" font-weight="700" font-size="76">DESCÍFRAME</text><rect x="324" y="462" width="552" height="72" rx="15" fill="#111e22" stroke="#71f5af" stroke-opacity=".3"/><text x="356" y="507" fill="#71f5af" font-family="monospace" font-size="25">&gt; DESCÍFRAME</text></svg>
